<svg width="62" height="52" viewBox="0 0 62 52" fill="none" xmlns="http://www.w3.org/2000/svg">
<path d="M61.5757 47.5244L61.5931 47.5136L33.4994 1.42388L33.4819 1.43368C32.9753 0.578573 32.0579 0 31 0C29.9809 0 29.0887 0.532483 28.5694 1.33562L28.5529 1.32582L0.459188 47.4155L0.475656 47.4253C0.177281 47.8882 0 48.4383 0 49.0316C0 50.6565 1.30103 51.9735 2.90625 51.9735C2.91497 51.9735 2.92369 51.9706 2.93241 51.9706V52H59.1199V51.9706C60.7125 51.9559 62 50.6477 62 49.0316C62 48.4785 61.8402 47.9667 61.5757 47.5244ZM31 46.0897C28.86 46.0897 27.125 44.3334 27.125 42.1672C27.125 40.001 28.86 38.2447 31 38.2447C33.14 38.2447 34.875 40.001 34.875 42.1672C34.875 44.3334 33.14 46.0897 31 46.0897ZM34.875 31.3802C34.875 33.5465 33.14 35.3028 31 35.3028C28.86 35.3028 27.125 33.5465 27.125 31.3802V16.6708C27.125 14.5045 28.86 12.7482 31 12.7482C33.14 12.7482 34.875 14.5045 34.875 16.6708V31.3802Z" fill="black"/>
</svg>
