<svg width="100" height="76" viewBox="0 0 100 76" fill="none" xmlns="http://www.w3.org/2000/svg">
<path d="M84.7095 6.34732C78.1394 3.33937 71.2034 1.20542 64.0788 0C63.1038 1.74286 62.2217 3.53604 61.436 5.37202C53.8469 4.22842 46.1292 4.22842 38.54 5.37202C37.754 3.53623 36.8718 1.74307 35.8973 0C28.768 1.2156 21.8275 3.35461 15.2508 6.36305C2.19435 25.6803 -1.34505 44.5178 0.424652 63.0878C8.07084 68.7371 16.6291 73.0336 25.7274 75.7903C27.7761 73.0349 29.5889 70.1118 31.1466 67.0519C28.188 65.9469 25.3323 64.5836 22.6127 62.9777C23.3285 62.4586 24.0285 61.9237 24.7049 61.4046C32.6182 65.1261 41.2552 67.0556 49.9998 67.0556C58.7445 67.0556 67.3814 65.1261 75.2947 61.4046C75.979 61.9631 76.679 62.4979 77.3869 62.9777C74.6621 64.5862 71.8012 65.9521 68.8373 67.0598C70.3931 70.1182 72.206 73.0389 74.2565 75.7903C83.3626 73.0446 91.9274 68.7502 99.575 63.0957C101.651 41.5604 96.0277 22.896 84.7095 6.34732ZM33.3882 51.6674C28.4567 51.6674 24.3824 47.192 24.3824 41.6862C24.3824 36.1805 28.3151 31.6658 33.3725 31.6658C38.4299 31.6658 42.4727 36.1805 42.3862 41.6862C42.2997 47.192 38.4142 51.6674 33.3882 51.6674ZM66.6114 51.6674C61.672 51.6674 57.6135 47.192 57.6135 41.6862C57.6135 36.1805 61.5461 31.6658 66.6114 31.6658C71.6767 31.6658 75.688 36.1805 75.6015 41.6862C75.515 47.192 71.6373 51.6674 66.6114 51.6674Z" fill="black"/>
</svg>
