<svg width="68" height="47" viewBox="0 0 68 47" fill="none" xmlns="http://www.w3.org/2000/svg">
<path d="M65.7396 7.33946C64.9674 4.45083 62.692 2.17543 59.8034 1.40329C54.5677 -3.55736e-07 33.5714 0 33.5714 0C33.5714 0 12.5751 -3.55736e-07 7.33946 1.40329C4.45083 2.17543 2.17543 4.45083 1.40329 7.33946C0 12.5751 0 23.5 0 23.5C0 23.5 0 34.4249 1.40329 39.6605C2.17543 42.5492 4.45083 44.8246 7.33946 45.5967C12.5751 47 33.5714 47 33.5714 47C33.5714 47 54.5677 47 59.8034 45.5967C62.692 44.8246 64.9674 42.5492 65.7396 39.6605C67.1429 34.4249 67.1429 23.5 67.1429 23.5C67.1429 23.5 67.1429 12.5751 65.7396 7.33946ZM26.8571 33.5714V13.4286L44.3009 23.5L26.8571 33.5714Z" fill="black"/>
</svg>
