<svg width="55" height="52" viewBox="0 0 55 52" fill="none" xmlns="http://www.w3.org/2000/svg">
<path d="M3.03309 15.6H44.0627L39.8285 19.5208L39.8346 19.5302C39.2188 20.1011 38.8235 20.9196 38.8235 21.841C38.8235 23.5643 40.1813 24.961 41.8566 24.961C42.6361 24.961 43.3408 24.6501 43.8787 24.1519L43.8858 24.1602L53.996 14.8002L53.989 14.7909C54.6047 14.2199 55 13.4004 55 12.48C55 11.5596 54.6047 10.7401 53.989 10.1691L53.996 10.1608L43.8858 0.8008L43.8787 0.80912C43.3408 0.312 42.6361 0 41.8566 0C40.1813 0 38.8235 1.39672 38.8235 3.12C38.8235 4.0404 39.2188 4.85992 39.8346 5.43088L39.8275 5.4392L44.0627 9.36H3.03309C1.35781 9.36 0 10.7567 0 12.48C0 14.2033 1.35781 15.6 3.03309 15.6ZM51.9669 36.4H10.9373L15.1725 32.4792L15.1654 32.4719C15.7822 31.8999 16.1765 31.0814 16.1765 30.16C16.1765 28.4367 14.8187 27.04 13.1434 27.04C12.3629 27.04 11.6592 27.352 11.1213 27.8481L11.1142 27.8398L1.00395 37.1998L1.01103 37.2081C0.395313 37.7811 0 38.5996 0 39.52C0 40.4404 0.395313 41.2589 1.01103 41.8319L1.00395 41.8392L11.1142 51.1992L11.1213 51.1919C11.6592 51.689 12.3639 52 13.1434 52C14.8187 52 16.1765 50.6033 16.1765 48.88C16.1765 47.9596 15.7812 47.1401 15.1654 46.5681L15.1725 46.5598L10.9373 42.64H51.9669C53.6422 42.64 55 41.2433 55 39.52C55 37.7967 53.6422 36.4 51.9669 36.4Z" fill="black"/>
</svg>
