<svg width="60" height="59" viewBox="0 0 60 59" fill="none" xmlns="http://www.w3.org/2000/svg">
<path d="M30 0C13.4366 0 0 11.7246 0 26.187C0 34.7374 4.69014 42.3157 11.9366 47.0968V58.5834C11.9366 58.7421 12.0423 58.9008 12.1901 58.9603C12.2535 59 12.338 59 12.4014 59C12.4859 59 12.5915 58.9802 12.6761 58.9206L23.4084 51.7192C25.5422 52.1358 27.7394 52.3541 30 52.3541C46.5634 52.3541 60 40.6295 60 26.1671C60 11.7048 46.5634 0 30 0ZM21.0423 33.1701C24 33.1701 26.5141 31.3648 27.5282 28.8453H32.0493C30.9084 33.7455 26.4084 37.4156 21.0211 37.4156C14.7887 37.4156 9.71831 32.4758 9.71831 26.4052C9.71831 20.3147 14.7887 15.3948 21.0211 15.3948C26.4084 15.3948 30.8873 19.0649 32.0493 23.965H27.5282C26.5141 21.4257 24 19.6402 21.0423 19.6402C17.1972 19.6402 14.0915 22.6755 14.0915 26.425C14.0915 30.1348 17.1972 33.1701 21.0423 33.1701ZM50.2606 37.3958H46.0563V27.6748C46.0563 26.5044 45.8239 25.691 45.3592 25.2545C44.8944 24.8181 44.2183 24.5999 43.3521 24.5999C42.8451 24.5999 42.3803 24.6991 41.9366 24.8974C41.493 25.0958 41.0915 25.3736 40.7535 25.7505C40.4155 26.1274 40.1408 26.5837 39.9507 27.1392C39.7606 27.6947 39.6549 28.3097 39.6549 29.004V37.3958H35.3873V14.9385H39.6338V23.4095C40.0986 22.9533 40.669 22.5763 41.3239 22.2391C42.1901 21.8026 43.1831 21.5646 44.2606 21.5646C46.2042 21.5646 47.7253 22.1002 48.7394 23.1318C49.7535 24.1634 50.2606 25.7505 50.2606 27.8336V37.3958Z" fill="black"/>
</svg>
