<svg width="65" height="66" viewBox="0 0 65 66" fill="none" xmlns="http://www.w3.org/2000/svg">
<path d="M60.3774 4.62996C57.3961 1.64249 53.4294 0 49.2023 0C44.9783 0 41.0054 1.64249 38.0303 4.62996L26.5019 16.1769C26.7839 16.1646 27.0628 16.1615 27.3417 16.1615C29.5079 16.1615 31.6401 16.4838 33.6978 17.116L42.0962 8.70209C43.9897 6.80238 46.5185 5.7549 49.2054 5.7549C51.8954 5.7549 54.4242 6.80238 56.3177 8.70209C58.2143 10.6018 59.2586 13.1337 59.2586 15.8268C59.2586 18.5198 58.2143 21.0517 56.3177 22.9514L44.7893 34.5015C44.4112 34.8827 43.999 35.2329 43.5683 35.5459C41.8514 36.7855 39.8215 37.4425 37.6925 37.4425C36.2731 37.4425 34.8476 37.1357 33.5584 36.5593C33.5398 36.5531 33.5212 36.5469 33.4995 36.5407C33.2671 36.4756 32.8859 36.3424 32.4055 36.0975L32.3219 36.051C31.8136 35.7845 31.3054 35.4622 30.8095 35.081L30.6608 34.9695L30.3974 34.6689C30.1866 34.4581 29.9542 34.2691 29.7125 34.1111C29.009 33.6493 28.194 33.4045 27.3448 33.4045C26.9605 33.4045 26.5794 33.4541 26.2106 33.5532C25.4916 33.7485 24.8284 34.1358 24.2985 34.6627L23.8863 35.0749C24.3604 35.9364 24.9121 36.7483 25.5257 37.4921C25.8325 37.8609 26.1579 38.2204 26.4988 38.5644C29.477 41.5487 33.4437 43.1943 37.6708 43.1943C37.6708 43.1943 37.6708 43.1943 37.6739 43.1943C41.8979 43.1943 45.8677 41.5487 48.8459 38.5644L60.3743 27.0143C66.5414 20.8472 66.5414 10.8001 60.3774 4.62996ZM31.324 47.9823L22.9287 56.3962C21.0321 58.2959 18.5033 59.3434 15.8164 59.3434C13.1265 59.3434 10.6007 58.2959 8.70413 56.3962C6.80753 54.4965 5.76315 51.9646 5.76315 49.2715C5.76005 46.5785 6.80753 44.0466 8.70413 42.1468L20.2325 30.5936C20.4588 30.3674 20.6974 30.1536 20.9391 29.9553C21.0197 29.8902 21.1034 29.8251 21.2397 29.7259C21.2397 29.7259 21.6054 29.4532 21.6705 29.4098C21.7944 29.323 21.9184 29.2425 22.0889 29.1402C22.2035 29.0689 22.3244 28.9976 22.439 28.9357C22.6033 28.8427 22.7706 28.7528 22.9349 28.6753C23.0186 28.632 23.1115 28.5917 23.2138 28.5452C23.409 28.4584 23.6043 28.3747 23.7902 28.3066L23.9917 28.2353C24.9865 27.882 26.0215 27.6899 27.0535 27.6589L27.289 27.6527C27.444 27.6527 27.5958 27.6589 27.7446 27.6651C27.7446 27.6651 28.0266 27.6775 28.1072 27.6837C28.2838 27.6992 28.4574 27.7177 28.6216 27.7394C28.7549 27.758 28.8912 27.7766 29.0214 27.7983C29.1825 27.8262 29.3437 27.8572 29.4986 27.8913C29.6474 27.9223 29.7931 27.9564 29.9356 27.9967C30.0782 28.0339 30.2207 28.071 30.3695 28.1175C30.4439 28.1423 30.605 28.195 30.605 28.195L32.0894 28.7466V28.8396C32.3529 28.9822 32.6132 29.134 32.8642 29.2983C33.1183 29.4656 33.3662 29.6453 33.6049 29.8375L33.6854 29.9026C33.9489 30.1164 34.203 30.3488 34.4571 30.5998C34.4912 30.6339 34.5222 30.6649 34.5501 30.6959L34.7453 30.8137C34.9096 30.9129 35.0304 30.9717 35.0986 31.0027L35.517 31.0771L35.8919 31.2971C36.456 31.5513 37.0541 31.6783 37.6708 31.6783C38.8267 31.6783 39.9114 31.2321 40.714 30.4263L41.1262 30.0172C40.4134 28.7218 39.5364 27.5535 38.5106 26.5246C35.5325 23.5403 31.5626 21.8978 27.3386 21.8978C23.1115 21.8978 19.1417 23.5403 16.1666 26.5246L4.63511 38.0778C4.3469 38.3629 4.05869 38.679 3.72709 39.0881C3.60003 39.2338 3.47917 39.3887 3.3707 39.5313C3.24364 39.6955 3.12278 39.8598 2.99882 40.0395C-1.55056 46.3677 -0.859477 54.9582 4.63511 60.4683C7.61328 63.4527 11.5831 65.0952 15.8102 65.0952C20.0373 65.0952 24.0072 63.4527 26.9822 60.4683L38.5075 48.9213C38.2317 48.9306 37.9497 48.9368 37.6708 48.9368C35.5139 48.9368 33.3848 48.6176 31.324 47.9823Z" fill="black"/>
</svg>
