<svg width="57" height="62" viewBox="0 0 57 62" fill="none" xmlns="http://www.w3.org/2000/svg">
<g clip-path="url(#clip0_538_82433)">
<path d="M26.6223 29.6143L0.235962 56.864C0.538897 57.8947 1.0751 58.8442 1.80419 59.641C2.53329 60.4378 3.43628 61.0612 4.44517 61.4642C5.45407 61.8672 6.54257 62.0393 7.62873 61.9677C8.71489 61.896 9.7704 61.5823 10.7158 61.0503L40.4053 44.3826L26.6223 29.6143Z" fill="#EA4335"/>
<path d="M53.3036 24.9822L40.4644 17.7337L26.0128 30.2344L40.5233 44.3439L53.2643 37.1729C54.078 36.756 54.8002 36.1847 55.3892 35.4918C55.9783 34.7989 56.4226 33.9981 56.6967 33.1354C56.9708 32.2727 57.0692 31.3652 56.9863 30.4649C56.9033 29.5646 56.6408 28.6893 56.2136 27.8893C55.547 26.6517 54.5198 25.6392 53.2643 24.9822H53.3036Z" fill="#FBBC04"/>
<path d="M0.235945 5.15536C0.0789469 5.73707 -0.00037057 6.33648 1.30153e-06 6.93842V55.081C-0.00037057 55.6829 0.0789469 56.2823 0.235945 56.864L27.5267 30.312L0.235945 5.15536Z" fill="#4285F4"/>
<path d="M26.8189 31.0097L40.4643 17.7337L10.8141 0.988432C9.69828 0.345335 8.42985 0.00434394 7.13731 -1.39719e-06C5.57611 -0.00305102 4.05672 0.497177 2.81075 1.42443C1.56478 2.35168 0.660571 3.65509 0.235962 5.13598L26.8189 31.0097Z" fill="#34A853"/>
</g>
<defs>
<clipPath id="clip0_538_82433">
<rect width="57" height="62" fill="white"/>
</clipPath>
</defs>
</svg>
