<svg width="100" height="100" viewBox="0 0 100 100" fill="none" xmlns="http://www.w3.org/2000/svg">
<path fill-rule="evenodd" clip-rule="evenodd" d="M50 0C77.6122 0 100 22.3878 100 50C100 74.9613 81.7185 95.6476 57.8118 99.3953V64.4565H69.4628L71.6777 50H57.8118V40.6202C57.8118 39.9533 57.8669 39.2894 57.9882 38.6465C58.5418 35.7112 60.4751 33.2117 64.8465 32.8526C65.2018 32.8234 65.5731 32.8083 65.9612 32.8083H72.2683V20.5034C72.2683 20.5034 66.5448 19.5261 61.0744 19.5261C49.6555 19.5261 42.1882 26.452 42.1882 38.9819V50H29.4895V64.4565H42.1882V99.3953C18.2815 95.6406 0 74.9543 0 50C0 22.3878 22.3878 0 50 0Z" fill="black"/>
</svg>
