<svg width="100" height="100" viewBox="0 0 100 100" fill="none" xmlns="http://www.w3.org/2000/svg">
<path fill-rule="evenodd" clip-rule="evenodd" d="M50 77.2727C65.0622 77.2727 77.2727 65.0622 77.2727 49.9999C77.2727 34.9376 65.0622 22.7272 50 22.7272C34.9376 22.7272 22.7272 34.9376 22.7272 49.9999C22.7272 65.0622 34.9376 77.2727 50 77.2727ZM50 68.1817C60.0413 68.1817 68.1818 60.0413 68.1818 49.9999C68.1818 39.9584 60.0413 31.8181 50 31.8181C39.9584 31.8181 31.8181 39.9584 31.8181 49.9999C31.8181 60.0413 39.9584 68.1817 50 68.1817Z" fill="#0F0F0F"/>
<path d="M77.2728 18.1819C74.7624 18.1819 72.7274 20.217 72.7274 22.7273C72.7274 25.2377 74.7624 27.2728 77.2728 27.2728C79.7833 27.2728 81.8183 25.2377 81.8183 22.7273C81.8183 20.217 79.7833 18.1819 77.2728 18.1819Z" fill="#0F0F0F"/>
<path fill-rule="evenodd" clip-rule="evenodd" d="M2.97255 14.8912C0 20.7251 0 28.3622 0 43.6364V56.3636C0 71.6377 0 79.275 2.97255 85.1086C5.58727 90.2405 9.75945 94.4127 14.8912 97.0273C20.7251 100 28.3622 100 43.6364 100H56.3636C71.6377 100 79.275 100 85.1086 97.0273C90.2405 94.4127 94.4127 90.2405 97.0273 85.1086C100 79.275 100 71.6377 100 56.3636V43.6364C100 28.3622 100 20.7251 97.0273 14.8912C94.4127 9.75945 90.2405 5.58727 85.1086 2.97255C79.275 0 71.6377 0 56.3636 0H43.6364C28.3622 0 20.7251 0 14.8912 2.97255C9.75945 5.58727 5.58727 9.75945 2.97255 14.8912ZM56.3636 9.09091H43.6364C35.8493 9.09091 30.5557 9.098 26.464 9.43227C22.4784 9.75791 20.4402 10.3481 19.0184 11.0726C15.5972 12.8158 12.8158 15.5972 11.0726 19.0184C10.3481 20.4402 9.75791 22.4784 9.43227 26.464C9.098 30.5557 9.09091 35.8493 9.09091 43.6364V56.3636C9.09091 64.1509 9.098 69.4441 9.43227 73.5359C9.75791 77.5218 10.3481 79.56 11.0726 80.9818C12.8158 84.4027 15.5972 87.1841 19.0184 88.9273C20.4402 89.6518 22.4784 90.2423 26.464 90.5677C30.5557 90.9018 35.8493 90.9091 43.6364 90.9091H56.3636C64.1509 90.9091 69.4441 90.9018 73.5359 90.5677C77.5218 90.2423 79.56 89.6518 80.9818 88.9273C84.4027 87.1841 87.1841 84.4027 88.9273 80.9818C89.6518 79.56 90.2423 77.5218 90.5677 73.5359C90.9018 69.4441 90.9091 64.1509 90.9091 56.3636V43.6364C90.9091 35.8493 90.9018 30.5557 90.5677 26.464C90.2423 22.4784 89.6518 20.4402 88.9273 19.0184C87.1841 15.5972 84.4027 12.8158 80.9818 11.0726C79.56 10.3481 77.5218 9.75791 73.5359 9.43227C69.4441 9.098 64.1509 9.09091 56.3636 9.09091Z" fill="#0F0F0F"/>
</svg>
