<svg width="100" height="100" viewBox="0 0 100 100" fill="none" xmlns="http://www.w3.org/2000/svg">
<path fill-rule="evenodd" clip-rule="evenodd" d="M63.6654 38.1992C63.6654 52.2638 52.2638 63.6654 38.1992 63.6654C24.1347 63.6654 12.7331 52.2638 12.7331 38.1992C12.7331 24.1347 24.1347 12.7331 38.1992 12.7331C52.2638 12.7331 63.6654 24.1347 63.6654 38.1992ZM60.3326 69.3364C54.0882 73.7832 46.4492 76.3985 38.1992 76.3985C17.1024 76.3985 0 59.2961 0 38.1992C0 17.1024 17.1024 0 38.1992 0C59.2961 0 76.3985 17.1024 76.3985 38.1992C76.3985 46.4492 73.7831 54.0883 69.3363 60.3328L99.9998 90.9963L90.9962 99.9999L60.3326 69.3364Z" fill="black"/>
</svg>
