<svg width="53" height="67" viewBox="0 0 53 67" fill="none" xmlns="http://www.w3.org/2000/svg">
<path d="M51.3073 22.8426C50.9297 23.1441 44.2632 27.0104 44.2632 35.6074C44.2632 45.5512 52.7461 49.069 53 49.1561C52.9609 49.3705 51.6524 53.9739 48.5275 58.6644C45.7411 62.792 42.831 66.9129 38.404 66.9129C33.977 66.9129 32.8377 64.2661 27.7272 64.2661C22.7468 64.2661 20.976 67 16.9267 67C12.8773 67 10.0518 63.1806 6.80322 58.4901C3.04029 52.9822 0 44.4254 0 36.3042C0 23.2781 8.22896 16.3697 16.3277 16.3697C20.631 16.3697 24.2182 19.2778 26.9199 19.2778C29.4915 19.2778 33.5018 16.1955 38.3975 16.1955C40.2529 16.1955 46.9194 16.3697 51.3073 22.8426V22.8426ZM36.0733 10.6809C38.098 8.20832 39.5303 4.77758 39.5303 1.34683C39.5303 0.871087 39.4912 0.388639 39.4066 0C36.1124 0.127313 32.1932 2.25813 29.83 5.07911C27.9746 7.25013 26.2428 10.6809 26.2428 14.1585C26.2428 14.6812 26.3275 15.2038 26.3665 15.3713C26.5749 15.4115 26.9134 15.4584 27.2519 15.4584C30.2076 15.4584 33.9249 13.4214 36.0733 10.6809Z" fill="black"/>
</svg>
