<svg width="53" height="57" viewBox="0 0 53 57" fill="none" xmlns="http://www.w3.org/2000/svg">
<path fill-rule="evenodd" clip-rule="evenodd" d="M37.9977 0H45.8677V23.7022C50.0373 25.2636 53 29.234 53 33.8853C53 38.5367 50.0373 42.5071 45.8677 44.0685V57H37.9977V44.0685C33.8281 42.5071 30.8654 38.5367 30.8654 33.8853C30.8654 29.234 33.8281 25.2636 37.9977 23.7022V0ZM41.9327 37.758C44.106 37.758 45.8677 36.0241 45.8677 33.8853C45.8677 31.7466 44.106 30.0127 41.9327 30.0127C39.7594 30.0127 37.9977 31.7466 37.9977 33.8853C37.9977 36.0241 39.7594 37.758 41.9327 37.758Z" fill="black"/>
<path fill-rule="evenodd" clip-rule="evenodd" d="M7.13225 0H15.0023V12.2054C19.1719 13.7668 22.1346 17.7372 22.1346 22.3885C22.1346 27.0399 19.1719 31.0103 15.0023 32.5717V57H7.13225V32.5717C2.9627 31.0103 0 27.0399 0 22.3885C0 17.7372 2.9627 13.7668 7.13225 12.2054V0ZM11.0673 26.2611C13.2406 26.2611 15.0023 24.5273 15.0023 22.3885C15.0023 20.2497 13.2406 18.5159 11.0673 18.5159C8.89403 18.5159 7.13225 20.2497 7.13225 22.3885C7.13225 24.5273 8.89403 26.2611 11.0673 26.2611Z" fill="black"/>
</svg>
