<svg width="71" height="65" viewBox="0 0 71 65" fill="none" xmlns="http://www.w3.org/2000/svg">
<path d="M35.5 0.875C54.5884 0.875 70.0625 12.9357 70.0625 27.8173C70.0625 42.6956 54.5884 54.7563 35.5 54.7563C33.5993 54.7573 31.7005 54.6364 29.8153 54.3942L15.3056 63.8841C13.6565 64.7564 13.0739 64.6609 13.752 62.5246L16.6881 50.4179C7.20812 45.612 0.9375 37.2841 0.9375 27.8173C0.9375 12.939 16.4116 0.875 35.5 0.875ZM54.9439 27.4058L59.7826 22.7185C60.0618 22.4285 60.2176 22.0415 60.2171 21.639C60.2166 21.2364 60.0599 20.8498 59.78 20.5605C59.5001 20.2712 59.1189 20.1019 58.7166 20.0881C58.3142 20.0743 57.9223 20.2173 57.6233 20.4868L51.277 26.629V21.5532C51.277 21.1412 51.1133 20.746 50.8219 20.4546C50.5305 20.1633 50.1353 19.9996 49.7233 19.9996C49.3112 19.9996 48.9161 20.1633 48.6247 20.4546C48.3333 20.746 48.1696 21.1412 48.1696 21.5532V29.97C48.1114 30.2101 48.1114 30.4607 48.1696 30.7008V35.4375C48.1696 35.8496 48.3333 36.2447 48.6247 36.5361C48.9161 36.8275 49.3112 36.9912 49.7233 36.9912C50.1353 36.9912 50.5305 36.8275 50.8219 36.5361C51.1133 36.2447 51.277 35.8496 51.277 35.4375V30.951L52.6825 29.5915L57.383 36.2835C57.5004 36.4505 57.6495 36.5928 57.8218 36.7023C57.9942 36.8117 58.1864 36.8862 58.3876 36.9213C58.5887 36.9565 58.7948 36.9516 58.994 36.9072C59.1933 36.8627 59.3818 36.7794 59.5489 36.662C59.716 36.5446 59.8583 36.3955 59.9678 36.2232C60.0772 36.0508 60.1516 35.8586 60.1868 35.6574C60.2219 35.4563 60.2171 35.2502 60.1726 35.051C60.1281 34.8517 60.0448 34.6632 59.9275 34.4961L54.9439 27.4025V27.4058ZM45.2071 33.739H40.4013V21.6026C40.3829 21.2034 40.2114 20.8266 39.9223 20.5505C39.6333 20.2745 39.249 20.1205 38.8493 20.1205C38.4496 20.1205 38.0653 20.2745 37.7762 20.5505C37.4872 20.8266 37.3156 21.2034 37.2972 21.6026V35.2927C37.2972 36.1485 37.9885 36.8463 38.8476 36.8463H45.2071C45.6192 36.8463 46.0144 36.6826 46.3057 36.3913C46.5971 36.0999 46.7608 35.7047 46.7608 35.2927C46.7608 34.8806 46.5971 34.4854 46.3057 34.1941C46.0144 33.9027 45.6192 33.739 45.2071 33.739V33.739ZM25.9278 30.1445L28.2188 24.5256L30.3189 30.1445H25.9278V30.1445ZM34.2327 31.7508L34.2393 31.6982C34.2385 31.3068 34.0891 30.9303 33.8213 30.6448L30.3782 21.4282C30.2338 20.989 29.9589 20.6042 29.5901 20.3254C29.2213 20.0466 28.7762 19.887 28.3143 19.8679C27.849 19.8659 27.3941 20.0056 27.0101 20.2684C26.6261 20.5312 26.3313 20.9048 26.1648 21.3393L20.6974 34.7528C20.6202 34.9417 20.581 35.144 20.582 35.348C20.583 35.5521 20.6242 35.7539 20.7032 35.9421C20.7822 36.1302 20.8975 36.3009 21.0425 36.4445C21.1875 36.5881 21.3594 36.7017 21.5483 36.7789C21.7372 36.856 21.9394 36.8952 22.1435 36.8942C22.3475 36.8932 22.5494 36.852 22.7375 36.773C22.9256 36.694 23.0964 36.5787 23.2399 36.4337C23.3835 36.2887 23.4971 36.1169 23.5743 35.928L24.6605 33.2518H31.4743L32.4585 35.8852C32.5254 36.082 32.6312 36.2634 32.7695 36.4186C32.9078 36.5739 33.0758 36.6998 33.2636 36.7889C33.4515 36.878 33.6553 36.9285 33.863 36.9373C34.0707 36.9462 34.2781 36.9134 34.4729 36.8407C34.6676 36.768 34.8458 36.6569 34.9969 36.5141C35.148 36.3712 35.2688 36.1995 35.3523 36.0091C35.4358 35.8187 35.4803 35.6135 35.483 35.4057C35.4858 35.1978 35.4468 34.9915 35.3683 34.7989L34.2327 31.7508V31.7508ZM23.2978 21.6191C23.2978 21.2076 23.1346 20.8129 22.8439 20.5216C22.5532 20.2304 22.1589 20.0663 21.7474 20.0654H11.066C10.6539 20.0654 10.2587 20.2291 9.96735 20.5205C9.67598 20.8118 9.51229 21.207 9.51229 21.6191C9.51229 22.0311 9.67598 22.4263 9.96735 22.7177C10.2587 23.0091 10.6539 23.1728 11.066 23.1728H14.8843V35.4704C14.8843 35.8825 15.048 36.2777 15.3394 36.569C15.6307 36.8604 16.0259 37.0241 16.438 37.0241C16.85 37.0241 17.2452 36.8604 17.5366 36.569C17.8279 36.2777 17.9916 35.8825 17.9916 35.4704V23.1728H21.7441C22.6033 23.1728 23.2978 22.4749 23.2978 21.6191Z" fill="black"/>
</svg>
