<svg width="91" height="27" viewBox="0 0 91 27" fill="none" xmlns="http://www.w3.org/2000/svg">
<path d="M45.7126 12.2861H37.3886V10.1774H45.7126V7.8854H37.3886V6.05179H45.7126V3.75977H34.4258V14.5781H45.7126V12.2861Z" fill="white"/>
<path d="M81.7362 8.02291L88.7435 14.5781H91.0008V3.75977H88.038V10.3149L80.9838 3.75977H78.7734V14.5781H81.7362V8.02291Z" fill="white"/>
<path d="M75.5751 3.75977H63.3477V14.5781H75.5751V3.75977ZM72.6123 12.2861H66.3105V6.05179H72.6123V12.2861Z" fill="white"/>
<path d="M21.9628 8.02291L28.97 14.5781H31.2274V3.75977H28.2646V10.3149L21.2103 3.75977H19V14.5781H21.9628V8.02291Z" fill="white"/>
<path d="M54.5533 11.2317L57.5632 14.5781H61.3254L56.4345 9.16892L61.3254 3.75977H57.6102L54.5533 7.10611L51.4965 3.75977H47.7812L52.6722 9.16892L47.7812 14.5781H51.4965L54.5533 11.2317Z" fill="white"/>
<path d="M0 14.623V23.6994L12.3685 17.2818L0 14.623Z" fill="#00A0DF"/>
<path d="M12.3685 0L0 6.41766V14.6231L12.3685 17.2818V0Z" fill="#002B49"/>
<path d="M12.3685 17.2812L0 23.6989L15.3313 26.9994L27.6997 20.5818L12.3685 17.2812Z" fill="#C2D500"/>
</svg>
