<svg width="74" height="44" viewBox="0 0 74 44" fill="none" xmlns="http://www.w3.org/2000/svg">
<path d="M37.0007 14.2736C40.8322 14.2736 43.9379 17.4659 43.9379 21.4046C43.9379 25.3433 40.8322 28.5353 37.0007 28.5353C33.1692 28.5353 30.0639 25.3433 30.0639 21.4046C30.0639 17.4659 33.1692 14.2736 37.0007 14.2736ZM0.00692889 21.8551C0.00807252 21.8216 0.0115369 21.7908 0.0138578 21.7586C0.015035 21.742 0.0173222 21.7254 0.0196431 21.7099C0.0196431 21.6862 0.0242862 21.6635 0.0288944 21.6412C0.0312153 21.6138 0.033536 21.5863 0.0381442 21.5603C0.0404651 21.5566 0.040465 21.5532 0.040465 21.5494C0.130644 20.9483 0.401182 20.3838 0.813934 19.9499C3.17484 17.0073 5.98314 14.388 8.83773 11.9967C14.9862 6.84231 22.0204 2.53161 29.7827 0.795273C34.2711 -0.20779 38.7848 -0.249388 43.2961 0.599167C47.3994 1.37048 51.3534 2.97611 55.0544 4.96555C60.8479 8.07939 66.1386 12.3711 70.7481 17.183C71.6015 18.0731 72.4501 18.9826 73.2258 19.9499C74.2581 21.2371 74.2581 22.7628 73.2258 24.0514C70.8648 26.9939 68.0575 29.6109 65.2018 32.0035C59.0511 37.1579 52.0184 41.4672 44.2544 43.2035C39.7673 44.2067 35.2503 44.2507 30.7413 43.4008C26.6394 42.6281 22.6851 41.0238 18.9819 39.0357C13.1884 35.9205 7.8989 31.6302 3.28813 26.8179C2.43605 25.9268 1.5874 25.0187 0.810469 24.0514C0.397717 23.6151 0.12718 23.0529 0.0370006 22.4491C0.0370006 22.4457 0.0346797 22.442 0.0346797 22.4396C0.0300379 22.4125 0.0277493 22.3861 0.0254284 22.359C0.0208202 22.3364 0.0184995 22.3127 0.0161786 22.29C0.0138577 22.2721 0.0127142 22.2578 0.0103933 22.2413C0.00807242 22.2105 0.00578535 22.1793 0.00346444 22.1462C0.00114353 22.0974 0 22.05 0 22.0013C0.00232091 21.9502 0.00578525 21.9025 0.00692889 21.8551ZM37.0007 35.6663C44.6628 35.6663 50.8747 29.2816 50.8747 21.4046C50.8747 13.5272 44.6638 7.14287 37.0007 7.14287C29.3377 7.14287 23.1267 13.5286 23.1267 21.4046C23.1267 29.2816 29.339 35.6663 37.0007 35.6663Z" fill="black"/>
</svg>
