<svg width="344" height="229" viewBox="0 0 344 229" fill="none" xmlns="http://www.w3.org/2000/svg">
<path d="M344 0L229 115L229 -5.02681e-06L344 0Z" fill="black"/>
<path d="M3.45525e-06 61.8919L1.3654e-06 114.5L115 229L115 114.5L0 0L3.45525e-06 61.8919Z" fill="black"/>
<path d="M115 61.8919L115 114.5L229 229L229 114.5L115 0L115 61.8919Z" fill="black"/>
<path d="M344 0L229 115L229 -5.02681e-06L344 0Z" fill="black"/>
<path d="M3.45525e-06 61.8919L1.3654e-06 114.5L115 229L115 114.5L0 0L3.45525e-06 61.8919Z" fill="black"/>
<path d="M115 61.8919L115 114.5L229 229L229 114.5L115 0L115 61.8919Z" fill="black"/>
</svg>
